<svg width="32" height="29" viewBox="0 0 32 29" fill="none" xmlns="http://www.w3.org/2000/svg">
<path d="M32 11.168V25.6C32 27.36 30.56 28.8 28.8 28.8H3.2C1.44 28.8 0 27.36 0 25.6V6.4C0 4.64 1.44 3.2 3.2 3.2H19.36C19.264 3.712 19.2 4.256 19.2 4.8C19.2 7.168 20.24 9.264 21.872 10.736L16 14.4L3.2 6.4V9.6L16 17.6L24.48 12.288C25.344 12.608 26.24 12.8 27.2 12.8C29.008 12.8 30.656 12.176 32 11.168ZM22.4 4.8C22.4 7.456 24.544 9.6 27.2 9.6C29.856 9.6 32 7.456 32 4.8C32 2.144 29.856 0 27.2 0C24.544 0 22.4 2.144 22.4 4.8Z" fill="white"/>
</svg>
