<svg width="106" height="106" viewBox="0 0 106 106" fill="none" xmlns="http://www.w3.org/2000/svg">
<g clip-path="url(#clip0_3_36)">
<path d="M68.2057 104.955C63.127 104.94 57.9877 104.94 52.9242 104.94C47.8607 104.94 42.7972 104.94 37.7792 104.955H37.7337C33.5647 104.955 29.9565 103.455 27.0155 100.501C20.633 94.1078 13.0984 86.5634 5.54864 79.0341C2.54692 76.0497 1.0309 72.3836 1.0309 68.1569C1.04606 58.2492 1.04606 48.0234 1.0309 37.7976C1.01574 33.571 2.54692 29.92 5.54864 26.9204C12.4162 20.088 19.4202 13.089 26.97 5.49921C29.9414 2.54509 33.595 1.03015 37.7943 1.03015H37.8398C42.8427 1.0453 47.9365 1.0453 52.9697 1.0453C58.0029 1.0453 63.0967 1.0453 68.1299 1.03015H68.1754C72.3747 1.03015 76.0283 2.54509 78.9997 5.52951C87.353 13.9071 94.1599 20.7243 100.421 26.9507C103.438 29.9503 104.954 33.6315 104.939 37.8885C104.924 41.4032 104.924 44.9784 104.939 48.4476V68.1872C104.939 71.3383 104.196 73.9894 102.665 76.277C102.013 77.2617 101.27 78.1555 100.482 78.9584C96.1004 83.3669 91.613 87.8359 87.2923 92.1686C84.5029 94.9561 81.7134 97.7436 78.9391 100.531C75.9828 103.485 72.3747 104.985 68.2057 104.985C68.2512 104.955 68.2057 104.955 68.2057 104.955Z" fill="#E81F27"/>
<path d="M37.7943 2.06031H37.8397C42.8881 2.07546 47.9213 2.07546 52.9696 2.07546C58.0179 2.07546 63.0814 2.07546 68.145 2.06031H68.1904C72.1624 2.06031 75.4976 3.45405 78.2871 6.25668C85.4124 13.4072 92.5528 20.5577 99.7085 27.6779C102.543 30.5108 103.938 33.8891 103.923 37.8734C103.908 42.9181 103.923 47.9477 103.923 52.9924V68.1721C103.923 70.8687 103.347 73.4289 101.831 75.6861C101.224 76.58 100.542 77.4435 99.7691 78.2161C92.5983 85.412 85.3972 92.5928 78.2265 99.7888C75.4673 102.561 72.1472 103.94 68.2207 103.94H68.1753C63.0814 103.925 57.9876 103.925 52.8786 103.925C47.7697 103.925 42.782 103.925 37.7488 103.94H37.7033C33.7768 103.94 30.4719 102.561 27.7127 99.7888C20.5723 92.6231 13.4167 85.4575 6.24592 78.3221C3.42612 75.5195 2.03139 72.1563 2.03139 68.1872C2.04655 58.0675 2.04655 47.9477 2.03139 37.8279C2.01623 33.8436 3.42612 30.4956 6.24592 27.693C13.4015 20.5728 20.542 13.4223 27.6673 6.27183C30.5022 3.4389 33.8375 2.06031 37.7943 2.06031ZM37.7943 0C33.3068 0 29.4107 1.62098 26.2422 4.80234C18.6773 12.3922 11.6733 19.4063 4.82086 26.2235C1.6069 29.42 -7.78219e-05 33.3134 -7.78219e-05 37.8279C0.0150824 48.0537 0.0150824 58.2644 -7.78219e-05 68.1721C-0.015238 72.6866 1.6069 76.58 4.82086 79.7765C12.3555 87.2754 19.9052 94.8349 26.2877 101.243C29.441 104.394 33.2917 106 37.7488 106H37.7943C42.7971 105.985 47.8909 105.985 52.9241 105.985C57.9573 105.985 63.1269 105.985 68.2056 106H68.2511C72.7082 106 76.5588 104.394 79.7122 101.243C82.5016 98.4556 85.3214 95.6227 88.0654 92.8807C92.3861 88.5479 96.8583 84.0789 101.255 79.6704C102.089 78.8221 102.877 77.8677 103.559 76.8375C105.196 74.3682 106 71.5504 106 68.1872V37.8885C106.015 33.3589 104.393 29.42 101.179 26.2235C94.9178 19.9971 88.1109 13.1951 79.7576 4.80234C76.574 1.60583 72.693 0 68.2056 0H68.1601C63.1118 0.0151493 58.0179 0.0151493 52.9848 0.0151493C47.9516 0.0151493 42.8729 0.0151493 37.8549 0H37.7943V0Z" fill="black"/>
<path d="M98.2532 52.7046H95.7063V65.7179C95.7063 67.9903 95.2211 70.1263 93.9477 72.02C93.4474 72.7775 92.8713 73.4895 92.2194 74.1409C86.2008 80.1855 80.1671 86.1998 74.1485 92.2292C71.829 94.5471 69.0546 95.7136 65.7649 95.7136H65.7346C61.4594 95.6984 57.1842 95.6984 52.9091 95.6984C48.6339 95.6984 44.4497 95.6984 40.22 95.7136H40.1897C36.8999 95.7136 34.1256 94.5622 31.8061 92.2292C25.8178 86.2149 19.8144 80.2158 13.7958 74.2318C11.4308 71.8837 10.2635 69.0659 10.2635 65.733C10.2786 61.4003 10.2786 57.0524 10.2786 52.7197H7.73171C7.73171 57.0979 7.73171 61.4458 7.71655 65.733C7.70139 69.7325 9.14161 73.2017 11.9917 76.0346C18.3135 82.3216 24.6353 88.654 29.9869 94.032C32.7915 96.8346 36.2177 98.2587 40.1745 98.2587H40.22C44.4194 98.2435 48.6945 98.2435 52.8939 98.2435C57.0933 98.2435 61.4442 98.2435 65.7043 98.2587H65.7497C69.7065 98.2587 73.1327 96.8346 75.9374 94.032C78.272 91.699 80.6522 89.3206 82.9414 87.0179C86.5647 83.3972 90.3244 79.6401 93.9931 75.9437C94.736 75.2014 95.4182 74.353 96.0246 73.444C97.48 71.2777 98.2077 68.672 98.2077 65.733V52.7046H98.2532ZM31.7909 13.8011C34.1407 11.4529 36.9302 10.2864 40.2503 10.2864H40.2958C44.5255 10.3016 48.7552 10.3016 52.9849 10.3016C57.2145 10.3016 61.4594 10.3016 65.7043 10.2864H65.7497C69.0698 10.2864 71.8744 11.4529 74.2091 13.8162C78.8027 18.4368 83.4113 23.0422 88.02 27.6476H91.613C87.0043 23.0573 81.9863 18.0277 75.998 12.0286C73.1782 9.19566 69.7217 7.75647 65.7346 7.75647H65.6891C61.4594 7.77162 57.1842 7.77162 52.9697 7.77162C48.7552 7.77162 44.48 7.77162 40.2958 7.75647H40.2503C36.2632 7.75647 32.8067 9.19566 29.9869 12.0286C24.4989 17.5278 19.3747 22.6634 14.3719 27.6476H17.9648C22.5887 23.027 27.1822 18.4216 31.7909 13.8011Z" fill="white"/>
<path d="M59.9585 51.432C59.8979 51.5987 59.8524 51.7653 59.7918 51.9471C59.1702 53.8408 59.5947 55.2194 61.0501 56.5677C62.6116 57.9917 64.2337 59.3703 65.5981 60.961C68.5089 64.3544 68.8121 68.672 66.5684 72.2321C64.4914 75.5195 60.3375 77.2011 56.6385 76.2315C52.621 75.1862 49.8012 71.8685 49.6345 67.8388C49.5132 64.915 50.1954 62.2032 52.1359 59.9157C52.242 59.7945 52.3633 59.6884 52.4694 59.5672C52.4997 59.5369 52.5907 59.4309 52.6816 59.4006C52.8636 61.3397 52.6816 63.5212 54.5463 64.8847C53.0152 59.037 55.2892 54.7346 59.9585 51.432ZM59.8373 66.4753C59.0186 69.3083 57.0781 70.9293 54.3038 71.6716C55.7137 73.444 58.7912 74.05 61.3836 73.0956C63.9911 72.1412 65.6284 69.6113 65.5526 66.7783C65.492 64.1575 63.0967 61.7033 61.0349 60.9004C61.9748 62.582 62.5964 64.2938 62.3387 66.1875C62.0961 67.8994 60.4285 70.2172 59.246 70.4899C60.0192 69.2325 60.1708 67.8994 59.8373 66.4753Z" fill="#FDD912"/>
<path d="M88.9145 39.2368V48.281C88.9145 49.3566 88.6416 49.6141 87.55 49.6141C86.883 49.6141 86.2159 49.6293 85.5489 49.6141C84.7757 49.599 84.4422 49.2808 84.4422 48.5082V31.8288C84.4422 31.0259 84.7757 30.7229 85.6095 30.7229H88.7477C89.536 30.7229 90.0818 31.0713 90.4153 31.7833C91.4765 34.0406 92.5377 36.2978 93.599 38.5702C93.6899 38.752 93.796 38.9338 93.887 39.1156C93.9325 39.1005 93.9931 39.0853 94.0386 39.0702V31.9651C94.0386 31.0259 94.3418 30.738 95.2666 30.7229H97.3284C98.238 30.7229 98.5563 31.041 98.5563 31.9651V47.7962C98.5563 48.0537 98.5715 48.3264 98.5563 48.584C98.526 49.2354 98.1925 49.599 97.5406 49.6141C96.6613 49.6444 95.7669 49.6444 94.8876 49.6141C94.175 49.599 93.7202 49.2051 93.417 48.5537C92.0829 45.6147 90.7337 42.6909 89.3844 39.767C89.2935 39.5852 89.2025 39.4034 89.0964 39.2065C89.0206 39.2217 88.9751 39.2217 88.9145 39.2368Z" fill="white"/>
<path d="M29.3653 55.0073C30.5932 55.0073 31.8212 54.9619 33.0492 55.0225C34.6107 55.0982 35.6264 56.2344 35.6567 57.7948C35.6719 58.5068 35.6719 59.2037 35.6567 59.9157C35.6416 60.5823 35.3384 60.9458 34.6865 60.9761C33.8375 61.0064 32.9886 61.0064 32.1547 60.9761C31.609 60.961 31.2754 60.658 31.1845 60.0823C31.0784 59.3552 30.8661 59.1885 30.1536 59.1734C29.5623 59.1582 28.9863 59.1582 28.395 59.1734C27.8341 59.1885 27.546 59.4764 27.5309 60.0369V61.2488C27.5309 62.0669 27.7886 62.3547 28.6073 62.3547C29.8807 62.3699 31.1542 62.3244 32.4125 62.385C33.0037 62.4153 33.6253 62.5214 34.1559 62.7638C35.1261 63.2182 35.6416 64.0515 35.6567 65.1271C35.6719 67.1268 35.6871 69.1113 35.6567 71.1111C35.6416 72.5351 34.4894 73.7773 33.0644 73.8076C30.6084 73.8682 28.1524 73.8682 25.6813 73.8076C24.2714 73.7773 23.1041 72.5654 23.0283 71.1414C22.9828 70.4142 22.998 69.687 23.0283 68.9599C23.0435 68.3084 23.4073 67.9751 24.0744 67.96C24.8627 67.9448 25.651 67.9448 26.4393 67.96C27.1367 67.9751 27.4096 68.2024 27.546 68.8993C27.637 69.384 27.9099 69.6416 28.4102 69.6567C29.0317 69.6567 29.6533 69.6719 30.29 69.6567C30.8813 69.6416 31.1542 69.3537 31.1845 68.7478C31.1996 68.369 31.1996 67.9751 31.1845 67.5964C31.1693 66.7935 30.9268 66.536 30.1384 66.536C28.8347 66.5208 27.5157 66.5511 26.2119 66.5208C24.1956 66.4905 23.0435 65.3089 23.0435 63.294V61.6579C23.0435 60.4308 23.0283 59.2037 23.0435 57.9766C23.0586 56.1435 23.9986 55.0982 25.8178 54.9922C26.9851 54.9467 28.1828 54.9922 29.3653 55.0073C29.3653 55.0073 29.3653 54.9922 29.3653 55.0073Z" fill="white"/>
<path d="M33.7163 40.1912V48.2355C33.7163 49.3263 33.4282 49.6141 32.3064 49.6141H30.4871C29.4866 49.6141 29.1834 49.3111 29.1834 48.3264V41.4335C29.1834 40.7215 28.9863 40.6003 28.3496 40.9184C27.728 41.2214 27.1367 41.5395 26.5152 41.8577C25.9088 42.1758 25.6056 42.6454 25.6056 43.3575C25.6207 45.0542 25.6207 46.7358 25.6056 48.4325C25.6056 49.2657 25.2872 49.599 24.4382 49.6141C23.756 49.6293 23.0738 49.6141 22.3764 49.6141C21.4365 49.6141 21.103 49.2808 21.103 48.3416V33.1771C21.103 32.6923 21.0878 32.2075 21.103 31.7227C21.1333 31.0713 21.482 30.7229 22.1339 30.7077C22.9222 30.6926 23.7105 30.6926 24.4989 30.7077C25.272 30.7229 25.6056 31.041 25.6056 31.8136V37.1311C25.6056 37.8582 25.833 37.9946 26.4849 37.6764C27.0913 37.3735 27.6977 37.0553 28.3192 36.7372C28.9105 36.4342 29.2137 35.9646 29.1985 35.2828C29.1682 34.1618 29.1834 33.0256 29.1985 31.9045C29.1985 31.0562 29.5169 30.7229 30.3507 30.7229C31.0936 30.7229 31.8364 30.7077 32.5944 30.7229C33.3979 30.738 33.7314 31.0713 33.7314 31.8742C33.7163 34.6314 33.7163 37.4189 33.7163 40.1912Z" fill="white"/>
<path d="M6.94337 40.1458V33.8588C6.94337 31.9651 8.1865 30.7077 10.0815 30.7077C12.2191 30.6926 14.3567 30.6926 16.4943 30.7077C18.3893 30.7229 19.5718 31.9197 19.587 33.8134V37.4341C19.587 38.1915 19.2989 38.5097 18.5409 38.5248C17.7223 38.54 16.8884 38.5551 16.0546 38.5248C15.4179 38.4945 15.145 38.2218 15.1147 37.5855C15.0844 37.025 15.1147 36.4645 15.0995 35.8888C15.0844 35.1919 14.7963 34.889 14.099 34.8738C13.5532 34.8587 13.0074 34.8587 12.4617 34.8738C11.7643 34.889 11.4611 35.1768 11.4611 35.8585V44.4482C11.4611 45.0845 11.734 45.3875 12.3707 45.4178C12.9771 45.4481 13.5835 45.4481 14.1899 45.4178C14.8115 45.3875 15.0844 45.0845 15.0995 44.4482C15.1147 43.8877 15.0844 43.312 15.1147 42.7515C15.145 42.0546 15.4785 41.7365 16.1759 41.7213C16.9642 41.7062 17.7526 41.7062 18.5409 41.7213C19.2686 41.7365 19.587 42.0849 19.6021 42.8272C19.6173 44.0543 19.5566 45.2814 19.6173 46.5085C19.7082 48.2507 18.4348 49.5384 16.6762 49.5838C14.4173 49.6444 12.1585 49.6444 9.8996 49.5838C8.08038 49.5232 6.95853 48.2658 6.95853 46.4328C6.92821 44.3422 6.94337 42.2515 6.94337 40.1458Z" fill="white"/>
<path d="M42.8882 40.1306V33.9042C42.8882 31.9348 44.1313 30.7077 46.1021 30.7077H52.333C54.3493 30.7077 55.5166 31.8742 55.5317 33.8891V37.4037C55.5317 38.2218 55.2589 38.5096 54.4554 38.5399C53.6519 38.5551 52.8484 38.5702 52.0297 38.5399C51.3324 38.5096 51.0747 38.2218 51.0595 37.5098C51.0443 36.9644 51.0747 36.419 51.0595 35.8737C51.0443 35.2374 50.726 34.9041 50.0892 34.889C49.498 34.8738 48.9219 34.8738 48.3307 34.889C47.7091 34.9041 47.3907 35.2222 47.3907 35.8282C47.3756 38.7066 47.3907 41.6001 47.3907 44.4785C47.3907 45.0693 47.7091 45.3875 48.27 45.4329C48.8916 45.4783 49.5283 45.4783 50.1499 45.4329C50.7714 45.3875 51.0443 45.0845 51.0747 44.4482C51.0898 43.8877 51.0747 43.312 51.0898 42.7515C51.105 42.0849 51.4233 41.7516 52.0904 41.7213C52.8939 41.7062 53.6974 41.7062 54.516 41.7213C55.2134 41.7365 55.5469 42.0849 55.5621 42.7818C55.5772 44.024 55.5772 45.2814 55.5621 46.5237C55.5469 48.3113 54.4857 49.5232 52.6816 49.5838C50.3924 49.6596 48.0881 49.6596 45.7837 49.5838C44.01 49.5232 42.9185 48.2658 42.9185 46.4934C42.8882 44.3724 42.8882 42.2515 42.8882 40.1306Z" fill="white"/>
<path d="M61.7474 36.1464C61.8687 35.9646 61.99 35.7979 62.0961 35.6161C62.839 34.3284 63.5818 33.0407 64.3095 31.7379C64.7037 31.0259 65.2646 30.6926 66.0832 30.7077C66.8867 30.7229 67.6902 30.7077 68.5089 30.7077C69.2972 30.7229 69.4943 31.0259 69.1304 31.7227C67.9479 33.9648 66.7806 36.2221 65.5678 38.4491C65.1736 39.1914 65.1585 39.8731 65.5526 40.6154C66.9322 43.206 68.2815 45.8268 69.6307 48.4325C70.0855 49.296 69.9036 49.5838 68.903 49.599H66.6593C65.9165 49.599 65.3555 49.2808 64.9765 48.6294C64.0063 46.9781 63.0209 45.342 62.0506 43.6907C61.9597 43.5241 61.8384 43.3877 61.5807 43.2817C61.5655 43.4938 61.5503 43.7059 61.5503 43.918V48.4476C61.5503 49.2505 61.232 49.599 60.4285 49.6141C59.6856 49.6293 58.9428 49.6293 58.1848 49.6141C57.3964 49.599 57.0478 49.2505 57.0478 48.4476V31.8894C57.0478 31.041 57.3813 30.7229 58.2151 30.7077H60.3375C61.232 30.7077 61.5352 31.0107 61.5503 31.8894V35.5101C61.5503 35.707 61.5655 35.8888 61.5807 36.0858C61.6413 36.1161 61.6868 36.1312 61.7474 36.1464Z" fill="white"/>
<path d="M69.8278 64.3847V56.098C69.8278 55.3103 70.0855 54.977 70.8435 54.977C73.7998 54.9618 76.7712 54.9467 79.7274 55.0224C81.2889 55.0679 82.4108 56.2495 82.4411 57.7948C82.4866 60.052 82.4866 62.3093 82.4411 64.5665C82.4108 66.0512 81.2889 67.2025 79.8032 67.2934C78.3782 67.3692 76.9379 67.3389 75.5129 67.354C74.5123 67.3692 74.3152 67.551 74.3001 68.566V72.6714C74.2849 73.5501 74.012 73.8228 73.1327 73.8379C72.405 73.8531 71.6774 73.8531 70.9497 73.8379C70.0855 73.8228 69.8127 73.535 69.8127 72.6563C69.8278 69.8991 69.8278 67.1419 69.8278 64.3847ZM77.9385 61.1579C77.9385 60.7792 77.9537 60.3853 77.9385 60.0066C77.9233 59.4764 77.6353 59.1885 77.1047 59.1734C76.4377 59.1582 75.7706 59.1582 75.1036 59.1734C74.6336 59.1885 74.3304 59.4461 74.3152 59.9308C74.2849 60.7489 74.2849 61.5821 74.3152 62.4153C74.3304 62.8547 74.5881 63.1273 75.0429 63.1425C75.7554 63.1576 76.4528 63.1728 77.1653 63.1425C77.6656 63.1273 77.9233 62.8244 77.9385 62.3244C77.9537 61.9154 77.9537 61.5367 77.9385 61.1579Z" fill="white"/>
<path d="M71.4196 40.1609V31.9954C71.4196 30.9956 71.7228 30.7077 72.7234 30.7077H81.2586C82.2591 30.7077 82.5623 30.9956 82.5623 31.9954C82.5623 32.6014 82.5775 33.2074 82.5623 33.8133C82.5472 34.5557 82.2288 34.8738 81.4708 34.8738C80.0003 34.889 78.5297 34.8738 77.0592 34.8738C76.2102 34.8738 75.9525 35.1465 75.9373 35.9949V37.025C75.9373 37.9037 76.1648 38.1158 77.0592 38.1309C77.8021 38.1461 78.5449 38.1309 79.3029 38.1309C80.3186 38.1461 80.5915 38.4188 80.5915 39.4338V41.1305C80.5764 42.0091 80.2732 42.3273 79.3787 42.3424C78.5752 42.3576 77.7717 42.3424 76.9531 42.3424C76.1951 42.3576 75.9373 42.6 75.9373 43.3574V44.2664C75.9373 45.1754 76.1951 45.4329 77.135 45.4329H81.6073C82.623 45.4329 82.8959 45.7056 82.911 46.7206C82.911 47.3114 82.9262 47.8871 82.911 48.4779C82.8959 49.2657 82.5472 49.6141 81.7437 49.6141C78.6965 49.6293 75.6493 49.6293 72.6173 49.6141C71.7531 49.6141 71.4348 49.2657 71.4348 48.387C71.4196 45.645 71.4196 42.903 71.4196 40.1609Z" fill="white"/>
<path d="M41.1447 66.4754V60.3702C41.1447 59.4006 40.9022 59.1582 39.9319 59.1582C39.371 59.1582 38.8101 59.1734 38.234 59.1431C37.5366 59.1128 37.2182 58.7643 37.2031 58.0675C37.1879 57.416 37.1879 56.7798 37.2031 56.1283C37.2182 55.28 37.5063 54.9618 38.3704 54.9467C39.841 54.9315 41.3115 54.9315 42.782 54.9315H48.2245C49.2857 54.9315 49.5586 55.2194 49.5586 56.2495V57.9463C49.5586 58.7795 49.2403 59.0976 48.3913 59.1279C47.8455 59.1431 47.2998 59.1279 46.754 59.1279C45.8747 59.1431 45.6625 59.34 45.6625 60.249V72.217C45.6625 72.4442 45.6776 72.6563 45.6473 72.8835C45.5867 73.4895 45.2835 73.7925 44.6771 73.8076C43.8281 73.8228 42.9791 73.8228 42.1453 73.8076C41.4631 73.7925 41.1599 73.4744 41.1599 72.7926C41.1447 70.702 41.1447 68.5963 41.1447 66.4754Z" fill="white"/>
<path d="M36.0661 40.1003V31.9348C36.0661 30.9956 36.3541 30.7077 37.2789 30.6926C38.0217 30.6926 38.7646 30.6774 39.5226 30.6926C40.2048 30.7077 40.5232 31.0107 40.5535 31.6924C40.5838 32.5105 40.5686 33.3437 40.5686 34.1769V48.084C40.5686 49.3717 40.3412 49.6141 39.0678 49.6141H37.3092C36.3844 49.599 36.0812 49.296 36.0661 48.387C36.0661 45.6298 36.0661 42.8575 36.0661 40.1003Z" fill="white"/>
<path d="M58.6547 62.7032C58.5941 62.7638 58.5486 62.8244 58.5031 62.8698C58.5486 62.8092 58.6093 62.7486 58.6547 62.7032Z" fill="#E81F27"/>
<path d="M30.6236 82.3367C30.6236 82.2458 30.76 82.1852 30.9874 82.1095C31.5332 81.9883 32.5944 81.8974 33.6101 81.8974C34.0043 81.8974 34.3075 82.2004 34.3075 82.367C34.3075 82.4731 34.1559 82.5488 33.8527 82.6094C33.5343 82.67 33.0037 82.7306 32.4428 82.7609C32.4579 83.0639 32.4579 83.4729 32.4579 83.8971C32.4579 84.1698 32.4579 84.4576 32.4428 84.7303C32.8976 84.6546 33.3676 84.6091 33.6404 84.6091C33.9133 84.6091 34.0801 84.8515 34.0801 85.0333C34.0801 85.1545 34.0194 85.2303 33.8678 85.2454C33.6556 85.2757 32.9431 85.3515 32.4276 85.4272C32.3973 86.1847 32.367 86.8361 32.3518 87.0179C32.3367 87.1845 32.2912 87.2451 32.0638 87.2451C31.7909 87.2451 31.4877 87.1391 31.4574 86.9421C31.4271 86.7906 31.4119 85.9423 31.4119 84.9879C31.4119 84.2607 31.4271 83.4426 31.4574 82.8064C31.3209 82.8215 31.1845 82.8215 31.0481 82.8215C30.8206 82.8367 30.6236 82.564 30.6236 82.3367Z" fill="#FBED1D"/>
<path d="M37.7943 83.8214C37.855 83.6244 38.143 83.8365 38.1278 84.0183C38.0369 85.2454 37.385 87.2603 36.2177 87.2603C35.1716 87.2603 34.7623 86.3816 34.7926 84.1849C34.7926 82.4579 35.3232 81.3217 36.248 81.3217C36.8392 81.3217 37.097 81.7156 37.097 82.4428C37.097 83.4275 36.5663 84.3516 35.6871 85.1394C35.7174 86.0938 35.9599 86.5331 36.3693 86.5331C36.9908 86.5482 37.476 85.0939 37.7943 83.8214ZM35.6871 84.5334C36.1419 83.7608 36.3996 83.0184 36.3996 82.4882C36.3996 82.0186 36.2935 81.8974 36.1722 81.8974C35.8841 81.8974 35.7022 82.6246 35.6871 84.5334Z" fill="#FBED1D"/>
<path d="M39.4468 86.2907C39.2194 86.8512 38.9162 87.2603 38.4917 87.2603C37.9156 87.2603 37.3395 86.73 37.3395 85.9271C37.3395 84.1395 37.9763 83.1548 38.8556 83.1548C39.2649 83.1548 39.5226 83.3669 39.6742 83.6396C39.7348 83.3669 39.7803 83.2457 39.9319 83.2457C40.1897 83.2457 40.4171 83.3972 40.4171 83.5941C40.4171 84.0334 40.2655 85.4726 40.2655 86.1089C40.2655 86.3664 40.3716 86.427 40.508 86.427C40.9325 86.427 41.357 85.003 41.6602 83.8214C41.7208 83.6093 42.0089 83.8365 42.0089 84.0183C41.9179 85.2302 41.357 87.2603 40.4171 87.2603C39.9319 87.2754 39.4165 86.8361 39.4468 86.2907ZM38.1582 85.8968C38.1582 86.1998 38.2492 86.427 38.4462 86.427C38.9465 86.427 39.4165 84.9121 39.4165 84.2607C39.4165 83.9728 39.2497 83.8214 38.992 83.8214C38.5978 83.8214 38.1582 84.6091 38.1582 85.8968Z" fill="#FBED1D"/>
<path d="M45.617 85.9877C45.617 85.3969 45.7231 84.7758 45.7534 84.2456C45.7534 84.1244 45.7231 84.0638 45.6321 84.0638C45.2077 84.0638 44.6619 85.9423 44.5406 87.033C44.5255 87.1391 44.4193 87.2148 44.2829 87.2148C43.919 87.2148 43.6613 87.0785 43.6613 86.8058C43.6613 85.8968 43.722 85.0182 43.7068 84.2607C43.7068 84.1395 43.6765 84.0789 43.6007 84.0789C43.1914 84.0789 42.7214 85.9574 42.5546 87.0785C42.5395 87.1694 42.403 87.23 42.2514 87.23C41.9785 87.23 41.6905 87.1239 41.6753 86.8664C41.6602 86.4725 41.7208 84.0335 41.8269 83.6244C41.8573 83.4881 41.9027 83.4275 42.0392 83.4123C42.2211 83.4123 42.5395 83.5032 42.5395 83.8214C42.5395 84.4425 42.5243 85.003 42.494 85.4121C42.8275 84.0789 43.3733 83.17 44.0403 83.17C44.5861 83.17 44.6771 83.5638 44.6771 84.3668C44.6771 84.4879 44.6771 84.6394 44.6619 84.8061C44.9803 83.8062 45.4351 83.17 46.087 83.17C46.5114 83.17 46.6934 83.4275 46.6934 83.8365C46.6934 84.3668 46.5266 85.0939 46.5266 85.8514C46.5266 86.3059 46.663 86.4574 46.8298 86.4574C47.2543 86.4574 47.6636 85.0333 47.9668 83.8517C47.982 83.7911 48.0123 83.7608 48.0578 83.7608C48.1639 83.7608 48.3003 83.8971 48.3003 84.0183C48.3003 84.7 47.6485 87.2754 46.5418 87.2754C45.905 87.2754 45.617 86.8209 45.617 85.9877Z" fill="#FBED1D"/>
<path d="M49.9831 85.8211C50.0438 85.7605 50.0893 85.715 50.1651 85.715C50.2712 85.715 50.3318 85.8059 50.3318 85.9423C50.3318 86.5634 49.9225 87.2754 49.0735 87.2754C47.9365 87.2754 47.512 86.5785 47.512 85.7605C47.512 84.1092 48.1336 83.1548 49.1342 83.1548C49.7861 83.1548 50.256 83.5335 50.256 84.094C50.256 84.7758 49.6344 85.3666 48.4216 85.4726V85.5787C48.4216 86.2604 48.7552 86.5785 49.1948 86.5785C49.6193 86.5634 49.8467 86.1241 49.9831 85.8211ZM48.4368 85.0939C49.3009 84.8061 49.5132 84.3516 49.5132 84.0486C49.5132 83.8214 49.407 83.7002 49.1796 83.7002C48.8006 83.7002 48.4974 84.1243 48.4368 85.0939Z" fill="#FBED1D"/>
<path d="M55.1982 87.2754C53.9248 87.2754 53.3638 86.5937 53.3638 85.0788C53.3638 83.2457 53.9399 81.8823 55.3195 81.8823C56.3655 81.8823 56.7749 82.6094 56.7749 83.3972C56.7749 83.7153 56.7142 84.0183 56.5626 84.1395C56.4565 84.2153 56.2897 84.2607 56.1381 84.2607C55.9865 84.2607 55.8653 84.2153 55.8653 84.1092C55.8653 83.988 55.8804 83.7759 55.8804 83.6547C55.8804 82.9427 55.6682 82.6397 55.2437 82.6397C54.5615 82.6397 54.3644 83.6699 54.3644 85.003C54.3644 86.2301 54.6676 86.518 55.2437 86.518C55.7895 86.518 56.0169 86.1544 56.0472 85.4272C55.8653 85.4424 55.7137 85.4424 55.5924 85.4575C55.3347 85.4575 55.2437 85.4121 55.2437 85.306C55.2437 85.2 55.2892 84.897 55.4863 84.8667C55.7743 84.8061 56.1836 84.7909 56.5778 84.7909C56.7446 84.7909 56.8355 84.9273 56.8355 85.0939C56.8355 86.0635 56.7597 87.2754 55.1982 87.2754Z" fill="#FBED1D"/>
<path d="M61.7323 83.8365C61.7474 83.7759 61.7626 83.7608 61.8081 83.7608C61.9142 83.7608 62.0809 83.8971 62.0658 84.0334C61.9748 85.2454 61.4139 87.2754 60.2617 87.2754C59.6553 87.2754 59.2915 86.9573 59.2915 86.4573C59.2915 85.8211 59.534 84.7303 59.5795 84.0789C59.3824 84.094 59.0792 84.094 58.8367 84.1092C58.8063 85.9726 58.5031 87.2754 58.2151 87.2754C57.9877 87.2754 57.7148 87.1239 57.7148 86.9118C57.7148 86.7149 58.1241 85.7605 58.2606 84.0637C58.0787 83.9729 58.0332 83.7759 58.0635 83.579C58.0938 83.2911 58.1696 83.1548 58.3819 83.1548C58.7457 83.1548 59.4734 83.2002 60.0798 83.276C60.383 83.3063 60.5043 83.4123 60.5043 83.6547C60.5043 84.1849 60.2162 85.4726 60.2162 86.2149C60.2162 86.4119 60.3072 86.5179 60.474 86.5179C60.9439 86.5179 61.3533 85.3817 61.7323 83.8365Z" fill="#FBED1D"/>
<path d="M64.0669 83.8365C64.0821 83.7759 64.1124 83.7456 64.1579 83.7456C64.264 83.7456 64.4156 83.882 64.4156 84.0334C64.3246 85.2605 63.7182 87.2754 62.6873 87.2754C61.99 87.2754 61.7626 86.7149 61.7626 85.7605C61.7626 85.0636 61.8232 83.7608 61.899 83.3972C61.9293 83.2154 62.0203 83.1699 62.1567 83.1699C62.4296 83.1699 62.748 83.276 62.748 83.5335C62.748 84.594 62.657 85.1393 62.657 85.7908C62.657 86.2755 62.7935 86.427 62.9754 86.427C63.3847 86.427 63.7637 85.0182 64.0669 83.8365ZM61.8081 82.2761C61.8081 81.958 62.0961 81.7307 62.5206 81.7307C62.9754 81.7307 63.127 81.9883 63.127 82.1701C63.127 82.5337 62.8389 82.7458 62.4448 82.7458C62.0506 82.7458 61.8081 82.5337 61.8081 82.2761Z" fill="#FBED1D"/>
<path d="M67.0686 83.8214C67.1293 83.6244 67.4173 83.8365 67.4022 84.0183C67.3112 85.2454 66.6593 87.2603 65.492 87.2603C64.4459 87.2603 64.0366 86.3816 64.0669 84.1849C64.0669 82.4579 64.5975 81.3217 65.5223 81.3217C66.1136 81.3217 66.3713 81.7156 66.3713 82.4428C66.3713 83.4275 65.8407 84.3516 64.9614 85.1394C64.9917 86.0938 65.2343 86.5331 65.6436 86.5331C66.2652 86.5482 66.7503 85.0939 67.0686 83.8214ZM64.9462 84.5334C65.401 83.7608 65.6587 83.0184 65.6587 82.4882C65.6587 82.0186 65.5526 81.8974 65.4313 81.8974C65.1585 81.8974 64.9765 82.6246 64.9462 84.5334Z" fill="#FBED1D"/>
<path d="M70.0552 83.8214C70.1158 83.6244 70.4039 83.8365 70.3887 84.0183C70.2977 85.2454 69.6459 87.2603 68.4785 87.2603C67.4325 87.2603 67.0232 86.3816 67.0535 84.1849C67.0535 82.4579 67.5841 81.3217 68.5088 81.3217C69.1001 81.3217 69.3578 81.7156 69.3578 82.4428C69.3578 83.4275 68.8272 84.3516 67.9479 85.1394C67.9782 86.0938 68.2208 86.5331 68.6301 86.5331C69.2517 86.5482 69.7368 85.0939 70.0552 83.8214ZM67.9479 84.5334C68.4027 83.7608 68.6605 83.0184 68.6605 82.4882C68.6605 82.0186 68.5543 81.8974 68.433 81.8974C68.145 81.8974 67.9631 82.6246 67.9479 84.5334Z" fill="#FBED1D"/>
<path d="M73.3601 83.8214C73.3753 83.7759 73.4056 83.7456 73.4511 83.7456C73.5572 83.7456 73.7088 83.882 73.7088 84.0032C73.7088 84.6697 72.8902 87.2603 71.1619 87.2603C70.0249 87.2603 69.6004 86.5634 69.6004 85.7453C69.6004 84.0941 70.222 83.1396 71.2225 83.1396C71.8744 83.1396 72.3444 83.5184 72.3444 84.0789C72.3444 84.7606 71.7228 85.3515 70.51 85.4575V85.5635C70.51 86.2453 70.8435 86.5634 71.2832 86.5634C72.2686 86.5634 72.9811 85.1242 73.3601 83.8214ZM70.51 85.0939C71.3741 84.8061 71.5864 84.3516 71.5864 84.0486C71.5864 83.8214 71.4803 83.7002 71.2529 83.7002C70.8739 83.7002 70.5858 84.1244 70.51 85.0939Z" fill="#FBED1D"/>
<path d="M76.5589 85.8059C76.6044 85.7453 76.6499 85.715 76.7105 85.715C76.8166 85.715 76.8773 85.8059 76.8773 85.9423C76.8773 86.5634 76.4983 87.2754 75.8615 87.2754C75.4067 87.2754 75.1339 86.8967 75.0581 86.1847C74.8306 86.7906 74.4971 87.2603 74.0575 87.2603C73.4814 87.2603 72.9053 86.7301 72.9053 85.9271C72.9053 84.1395 73.542 83.1548 74.4213 83.1548C74.679 83.1548 74.8761 83.2457 75.0277 83.382V82.8215C75.0126 81.4126 75.058 81.3369 75.3309 81.3369C75.7554 81.3369 75.9677 81.5793 75.9677 81.7914C75.9677 82.5337 75.8009 84.0789 75.8009 85.8514C75.8009 86.2756 75.9373 86.4271 76.1193 86.4271C76.3618 86.4271 76.4831 86.0635 76.5589 85.8059ZM73.724 85.8968C73.724 86.1998 73.8149 86.4271 74.012 86.4271C74.5123 86.4271 74.9823 84.9121 74.9823 84.2607C74.9823 83.9729 74.8155 83.8214 74.5578 83.8214C74.1636 83.8214 73.724 84.6091 73.724 85.8968Z" fill="#FBED1D"/>
</g>
<defs>
<clipPath id="clip0_3_36">
<rect width="106" height="106" fill="white"/>
</clipPath>
</defs>
</svg>
