<svg width="32" height="32" viewBox="0 0 32 32" fill="none" xmlns="http://www.w3.org/2000/svg">
<path d="M30.5083 5.05631L26.3724 0.924272C26.0807 0.631237 25.7339 0.398734 25.352 0.240118C24.9702 0.0815028 24.5607 -9.91053e-05 24.1472 9.03282e-08C23.3045 9.03282e-08 22.5123 0.330097 21.9181 0.924272L17.4677 5.37476C17.1747 5.66651 16.9422 6.01328 16.7836 6.39516C16.6249 6.77704 16.5433 7.18649 16.5434 7.6C16.5434 8.44272 16.8735 9.23495 17.4677 9.82913L20.722 13.0835C19.9603 14.7626 18.9012 16.2901 17.5959 17.5922C16.2938 18.9007 14.7665 19.9637 13.0872 20.7301L9.83286 17.4757C9.54112 17.1827 9.19435 16.9502 8.81248 16.7916C8.4306 16.633 8.02116 16.5514 7.60765 16.5515C6.76495 16.5515 5.97273 16.8816 5.37856 17.4757L0.92426 21.9223C0.63087 22.2146 0.39817 22.562 0.23955 22.9446C0.0809292 23.3272 -0.000481231 23.7373 2.13992e-06 24.1515C2.13992e-06 24.9942 0.330094 25.7864 0.92426 26.3806L5.05235 30.5087C5.99991 31.4602 7.30863 32 8.6523 32C8.93579 32 9.20763 31.9767 9.47559 31.9301C14.7105 31.068 19.9026 28.2835 24.0928 24.0971C28.2792 19.9146 31.0597 14.7262 31.9335 9.47573C32.1976 7.87184 31.6655 6.22136 30.5083 5.05631Z" fill="#E81F27"/>
</svg>
